<svg version="1" xmlns="http://www.w3.org/2000/svg" width="682.667" height="682.667" viewBox="0 0 512.000000 512.000000"><path d="M236.9.4c-.2.2-3.4.6-7 1-94.8 8.9-179.6 74.1-213.4 164.2-3.7 9.7-10.2 31.5-10.9 36.4-.3 1.4-.9 5-1.5 8C1.2 225.6.5 234.4.6 257c0 11.3.4 23.4.8 27 .5 3.6 1 7.2 1.1 8 1.5 12.1 6.7 33.6 11.6 47.8 13.8 40.1 39.2 78.2 71.6 107.4 34.7 31.2 84 54.8 128.8 61.4 2.2.3 5.1.8 6.5 1 11.4 2 47.2 2.6 61 1.1 11.6-1.3 11.8-1.3 23.9-3.7 53.2-10.1 105.2-39.9 141.6-81.2 13.1-14.8 25.4-32.3 32.9-46.8 2.2-4.1 4.7-8.9 5.6-10.5 6.3-11.4 15.5-37.7 19.6-55.6 3-13.6 3.9-18.8 5.2-31.9.9-9.7.8-42.5-.1-51.5-1.1-9.9-2.3-17.8-3.1-21-.2-.6-.6-2.8-1-5-2.2-11.6-8.6-32.1-14.3-46-19.2-46-51-84.8-93.5-113.9-5.3-3.6-10-6.6-10.4-6.6-.4 0-1.5-.6-2.3-1.4-2-1.8-25.7-13.7-33.1-16.6-14.2-5.7-38-12.8-49-14.6-1.4-.2-3.8-.6-5.5-.9-1.6-.3-5-.8-7.5-1.1-2.5-.3-5.6-.8-7-1.1-2.8-.5-46.6-1.4-47.1-.9zm-129.4 151c7.9 4.7 8.3 5.3 23.5 39.6 4.3 9.6 9.1 20.4 10.8 24 1.6 3.6 6.6 14.6 11 24.5s9.4 20.9 11 24.5c1.7 3.6 4.9 10.8 7.2 16 2.3 5.2 4.5 9.9 4.9 10.3.4.4 2-2 3.6-5.5 1.5-3.5 4.5-10.1 6.6-14.6 2.2-4.6 3.9-8.6 3.9-8.8 0-.3 2-4.8 4.5-10.1 2.5-5.2 4.5-9.7 4.5-9.9 0-.2 1.6-3.7 3.5-7.8s5.2-11.4 7.4-16.3c2.1-4.8 5.3-11.8 7-15.5 1.7-3.6 3.1-6.8 3.1-7.1 0-.3 2-4.7 4.3-9.8 2.4-5.2 6.1-13.1 8.2-17.7 4.5-9.8 9.7-15 17.6-17.9 5.2-2 7.8-2 89.9-2.1 95.3 0 91.6-.3 99.4 7.3 6.1 5.9 8 10.6 8 19.5.1 11.2-4.4 18.4-14.6 23.6l-5.2 2.6-29.5.2-29.6.1-.2 81.5c-.1 54.9-.5 82.9-1.3 85.8-5.1 20.2-29.8 27-44.8 12.3-8.6-8.3-8.2-3.8-8.3-97.7l-.1-82.1h-17.6l-17.7.1-14 31c-7.6 17.1-15.4 34.2-17.1 38.1-1.8 3.8-13.1 28.8-25 55.5s-22.4 49.6-23.3 51c-8.5 13.7-29.9 16.1-41.4 4.6-4.7-4.7-4.8-5-14.3-26.1-9.9-22.2-11.3-25.3-15-33.3-1.9-4.1-3.4-7.6-3.4-7.8 0-.2-1.3-3.3-3-6.9-1.6-3.6-4.3-9.4-6-13-1.6-3.6-3-6.7-3-6.9 0-.2-1.8-4.2-3.9-8.8-2.1-4.5-6-13-8.6-18.8-2.6-5.8-5.5-12.4-6.6-14.6-1-2.3-4.8-10.9-8.5-19-3.7-8.2-9.4-21-12.7-28.4-5.7-12.7-6.1-14-6.1-21 0-8.1 1.7-12.6 7-18.9 8-9.6 22.9-12.1 33.9-5.7z"/></svg>