<svg version="1" xmlns="http://www.w3.org/2000/svg" width="640" height="640" viewBox="0 0 480.000000 480.000000"><path d="M221.8.4c-.1.2-3.2.7-6.8 1-29.1 3-58.5 11.7-83.9 24.8C90.7 47 57.5 78 34.3 116.5 18 143.5 6.2 176.6 2.5 206c-.4 3-1.1 8.2-1.5 11.5-.8 6.4-.5 44.3.5 51 .3 2.2 1 6.7 1.6 10 .6 3.3 1.2 6.9 1.4 8 4.2 25.3 18 59 34.3 84 14.5 22.3 34.5 44.1 54.7 59.6 27.2 20.8 57.3 35.2 90.7 43.3 10.6 2.5 12.5 2.9 28.8 5 9.3 1.3 46.7 1.4 54 .2 4.7-.7 9.7-1.5 14.5-2.2 10.6-1.5 29.4-6.7 44.5-12.4 17.2-6.4 45.1-21.7 57.2-31.4 1.4-1.1 4.1-3.2 5.9-4.6 3.6-2.7 11.3-9.5 19.3-16.9 6.2-5.9 18.8-20.6 25.7-30.1 13.4-18.3 23.8-38 32-60.5 3-8 8.2-26.8 9.3-33.5 1-6.2 1.6-9.5 2.1-11.5 3-14 2.7-55.8-.6-74-.6-3.3-1.2-7.1-1.4-8.5-.2-1.4-1.6-7-3-12.5-8.5-32.6-23.2-62.3-44.1-89.1-6.2-8-25.5-28.1-32.5-33.9-24.4-20.2-49.9-34.8-77.5-44.3-10-3.5-30.3-8.7-37.4-9.7-2.5-.3-7.4-1.1-11-1.7-5.8-1-47.3-2.1-48.2-1.4z"/></svg>